<?xml version="1.0" standalone="no"?>
<!DOCTYPE svg PUBLIC "-//W3C//DTD SVG 20010904//EN"
 "http://www.w3.org/TR/2001/REC-SVG-20010904/DTD/svg10.dtd">
<svg version="1.0" xmlns="http://www.w3.org/2000/svg"
 width="50.000000pt" height="50.000000pt" viewBox="0 0 50.000000 50.000000"
 preserveAspectRatio="xMidYMid meet">
<metadata>
Created by potrace 1.16, written by Peter Selinger 2001-2019
</metadata>
<g transform="translate(0.000000,50.000000) scale(0.007052,-0.007052)"
fill="#000000" stroke="none">
<path d="M3215 6364 c-1136 -141 -2059 -917 -2389 -2008 -87 -285 -121 -551
-113 -876 11 -457 103 -824 304 -1219 368 -724 1040 -1263 1822 -1461 861
-218 1746 -31 2461 520 122 94 376 348 470 470 501 649 703 1441 569 2230
-149 883 -711 1647 -1510 2053 -286 146 -557 231 -894 283 -146 23 -566 27
-720 8z m935 -2100 c67 -30 122 -84 151 -148 l18 -41 3 105 3 105 143 3 142 3
0 -558 c0 -361 4 -571 11 -596 12 -46 46 -66 83 -49 16 7 29 25 35 49 7 25 11
235 11 596 l0 557 438 -2 437 -3 3 -142 3 -143 -91 0 -90 0 -2 -759 -3 -759
-142 156 -143 157 0 603 0 602 -59 0 -60 0 -3 -452 c-4 -447 -4 -454 -27 -521
-30 -86 -90 -155 -163 -188 -46 -20 -69 -24 -168 -24 -140 0 -196 21 -263 95
-37 41 -49 66 -84 170 -3 8 -13 -13 -24 -47 -25 -80 -97 -161 -171 -193 -94
-40 -254 -37 -341 7 -45 23 -107 83 -129 127 -48 94 -51 119 -55 534 -5 431 1
521 43 611 30 67 54 94 113 129 101 59 269 67 381 16z m-2054 13 c2 -7 29
-263 58 -568 l54 -554 3 565 4 565 145 0 145 0 3 -602 2 -603 135 0 135 0 0
605 0 605 145 0 145 0 0 -605 0 -605 150 0 150 0 0 -130 0 -130 -704 0 c-663
0 -705 1 -710 18 -3 9 -8 63 -12 120 l-7 102 -87 0 -87 0 -7 -112 c-4 -62 -10
-116 -12 -120 -7 -12 -284 -10 -284 2 0 13 128 1343 135 1408 l6 52 245 0
c193 0 246 -3 250 -13z m2515 -1616 c4 -3 10 -16 14 -28 5 -18 2 -23 -13 -23
-11 0 -22 7 -26 15 -6 17 -26 20 -26 4 0 -6 16 -29 35 -50 36 -40 43 -66 25
-100 -21 -38 -100 -13 -100 31 0 29 26 31 39 4 6 -14 16 -22 21 -19 18 11 11
31 -25 65 -43 42 -49 95 -12 110 21 8 56 4 68 -9z m-791 -21 c0 -22 4 -28 15
-24 29 11 45 -16 45 -75 0 -66 -11 -81 -57 -81 l-33 0 0 105 c0 87 3 105 15
105 10 0 15 -10 15 -30z m283 16 c3 -7 9 -34 12 -60 8 -53 20 -53 29 1 11 63
17 73 37 73 18 0 19 -8 19 -105 0 -87 -3 -105 -15 -105 -11 0 -15 13 -16 53
l-1 52 -12 -50 c-7 -32 -16 -50 -26 -50 -10 0 -19 18 -26 50 l-12 50 -1 -52
c-1 -40 -5 -53 -16 -53 -12 0 -15 18 -15 105 0 96 2 105 19 105 10 0 21 -6 24
-14z"/>
<path d="M3954 4020 c-43 -17 -45 -43 -42 -484 l3 -418 24 -19 c29 -24 43 -24
72 0 l24 19 3 431 3 431 -25 25 c-27 27 -31 28 -62 15z"/>
<path d="M1840 4019 c0 -8 -11 -158 -25 -334 -14 -176 -25 -335 -25 -352 l0
-33 60 0 c52 0 60 2 60 19 0 45 -61 705 -65 709 -3 3 -5 -1 -5 -9z"/>
</g>
</svg>
